<svg width="461" height="371" viewBox="0 0 461 371" fill="none" xmlns="http://www.w3.org/2000/svg">
<path d="M292.164 102.037H306.207L346.23 62.0139L348.196 45.0216C325.269 24.7846 297.56 10.7267 267.689 4.17584C237.817 -2.37505 206.769 -1.20266 177.476 7.58226C148.184 16.3672 121.614 32.4746 100.278 54.383C78.9415 76.2913 63.5424 103.277 55.5352 132.792C59.9939 130.964 64.9331 130.668 69.5784 131.949L149.625 118.749C149.625 118.749 153.697 112.008 155.804 112.429C172.955 93.5925 196.658 82.0241 222.06 80.0922C247.462 78.1603 272.642 86.011 292.445 102.037H292.164Z" fill="#EA4335"/>
<path d="M403.246 132.792C394.046 98.9145 375.158 68.4591 348.899 45.1621L292.726 101.335C304.433 110.901 313.815 123 320.164 136.72C326.513 150.441 329.664 165.424 329.379 180.539V190.51C335.944 190.51 342.445 191.803 348.51 194.315C354.576 196.828 360.087 200.51 364.73 205.153C369.372 209.795 373.055 215.306 375.567 221.372C378.079 227.437 379.373 233.938 379.373 240.504C379.373 247.069 378.079 253.57 375.567 259.636C373.055 265.701 369.372 271.212 364.73 275.855C360.087 280.497 354.576 284.18 348.51 286.692C342.445 289.205 335.944 290.498 329.379 290.498H229.391L219.42 300.609V360.573L229.391 370.544H329.379C357.3 370.762 384.55 361.986 407.097 345.516C429.644 329.046 446.291 305.756 454.576 279.091C462.86 252.426 462.342 223.803 453.098 197.455C443.854 171.108 426.375 148.435 403.246 132.792Z" fill="#4285F4"/>
<path d="M129.263 369.982H229.251V289.936H129.263C122.14 289.934 115.1 288.402 108.62 285.442L94.5767 289.795L54.2725 329.819L50.7617 343.862C73.3634 360.929 100.942 370.105 129.263 369.982Z" fill="#34A853"/>
<path d="M129.264 110.323C102.172 110.484 75.8068 119.104 53.8514 134.977C31.8959 150.85 15.4463 173.184 6.80004 198.86C-1.84617 224.536 -2.25721 252.271 5.62435 278.191C13.5059 304.112 29.2865 326.924 50.7619 343.441L108.761 285.442C101.39 282.112 94.9376 277.044 89.9567 270.672C84.9757 264.3 81.6149 256.815 80.1628 248.858C78.7107 240.902 79.2105 232.712 81.6194 224.991C84.0283 217.271 88.2744 210.25 93.9933 204.531C99.7122 198.812 106.733 194.566 114.454 192.157C122.174 189.748 130.364 189.248 138.321 190.7C146.277 192.153 153.762 195.513 160.134 200.494C166.506 205.475 171.574 211.928 174.904 219.298L232.903 161.3C220.729 145.385 205.04 132.503 187.06 123.659C169.081 114.816 149.3 110.251 129.264 110.323Z" fill="#FBBC05"/>
</svg>
